<?xml version="1.0" encoding="utf-8"?>
<!-- Generator: Adobe Illustrator 21.0.2, SVG Export Plug-In . SVG Version: 6.00 Build 0)  -->
<svg version="1.1" id="Layer_1" xmlns="http://www.w3.org/2000/svg" xmlns:xlink="http://www.w3.org/1999/xlink" x="0px" y="0px"
	 viewBox="0 0 1000 1000" style="enable-background:new 0 0 1000 1000;" xml:space="preserve">
<style type="text/css">
	.st0{fill:#FFFFFF;}
	.st1{enable-background:new    ;}
	.st2{font-family:'Mercenary-Bold';}
	.st3{font-size:380.617px;}
	.st4{fill:#0A0A0A;}
	.st5{fill:none;stroke:#000000;stroke-width:34;stroke-miterlimit:10;}
	.st6{fill:none;stroke:#FFFFFF;stroke-width:10;stroke-miterlimit:10;}
	.st7{fill:none;stroke:#000000;stroke-width:15;stroke-miterlimit:10;}
	.st8{fill:#F5F5F5;}
</style>
<rect x="-3493.7" y="-80.5" width="588.7" height="580"/>
<g>
	<path d="M-2243.5,1300.1c0.6,0.5,3.4,3.1,4.3,1.7c3.9-4,6.1-6.1,10.3-9.9c6-6.5-2.5-7.1-4.8-8l-1.1-0.4
		c-21.1-8.5-42.8-74.9,38.1-98.1c64.9-14.9,123.8,14.9,140.1,23.2c17-2.7,34.4-4.1,52.1-4.1c40,0,78.4,7.1,114,20.1
		c5-1.7,7.5-11.2,7.5-11.2c17-37.6,14.7-72.7,12.4-88.2c6,1.4,11.6,3.1,17,5c10.3,15.1,33,60.5,12.7,117.5
		c24.1,13.7,46.3,30.3,66.1,49.4c2.3-0.2,4.8-6.1,4.8-13.6c0-10,6.8-71.5-35.2-127.9c5,3.6,9.6,7.4,14.1,11.1
		c29.9,25.6,58.1,84.6,49.1,166.7c5,6.4,9.7,13,14.2,19.8c1.1,1.2,1.7,1.8,1.7,1.8c12-48.2,16.8-166.1-97.9-229.7
		c-126-73.1-243.4,4-264,36.1c-27.6-7.3-60.1-11.2-93.8-4.4C-2257.4,1169.7-2309.5,1245.3-2243.5,1300.1z M-1938.2,1119.3
		c-61,42.7-61.6,68.6-67.8,74.8c-0.9,0.8-6.3-2.1-9.1-3.4c-6.5-3.4-13.3-8.4-35.9-16.6c-4.3-1.8-7.6-3.1-7.6-3.1
		S-2013.7,1124.7-1938.2,1119.3z"/>
	<path d="M-1579.7,1490.3c-2.6-0.7-2-3.4-2.2-6c5.5-3.1,24.6-21.7,11.8-35.6c-12.8-13.9-25.9-14.7-31.7-16.5
		c-0.4-2.5-1.1-6.1-2.5-10.4c-4.3-13.1-15.1-32.8-43.3-47c-0.6-0.3-1.2-0.6-1.8-0.9c-26.9-12.7-55.4-7-70.9-2.6
		c-58.4-94.4-163-157.3-282.2-157.3c-139.4,0-258.7,86-307.7,207.8c-5.9-3.4-11.5-7.2-11.9-8.8c-0.3-1.2,1.8-3.4,4.1-5.7
		c2.4-2.4,5-5.2,6.7-8.3c3.7-6.9,5.1-26.9-8.7-35.4c3-2.7,16.4-15.8,17.5-35.1c0.8-14.1-5.3-28.1-18.1-41.5
		c11-13.7,8.7-32.9-5.6-46.9c-18.1-17.7-51.6-22.4-85.8,6.9c-8.2-3.1-22.2-3.2-35.6,3.3c-9.4,4.6-21.9,14.3-28,34.5
		c-7.1,0.8-17,4.9-23.7,14.3c-8,11.2-9.9,26.7-5.4,46.3c-10.4,12.7-15.2,36.6-5.2,53.3c9,15,25.2,24.1,53,15.7
		c-2.6,4.1-2.2,9,1,13.2c7,9.3,25.7,14.1,51.9,3.9c-0.5,5.4,2.9,14.6,11.3,19.8c15.4,9.5,34.9-2.1,45.4-10l24.6,17.5
		c-7.5,27.7-11.5,56.7-11.5,86.7c0,183.2,148.5,331.6,331.6,331.6c144.2,0,266.5-91.9,312.1-220.5c0.3-1,0.7-2,1-3
		c-1.5,0.9-2.9,1.6-4.1,2.2c-9.2,3.9-17.8,5.9-25.5,5.9c-12.8,0-23.2-5.4-30-15.7c-8.6-13.1-9.3-32-5.1-42
		c6.4-15.1,20.9-25.3,32.5-33.4c3.5-2.5,7.3-5.1,10.3-7.6c-14.8-0.8-27.9-4.3-38.9-10.3c-11.9-6.5-20.9-15.8-25.9-27
		c-8.4-18.8-4.6-40.6,10-57l0.1-0.1l0.1-0.1c6.3-6.5,15-9.8,26-9.8c10.4,0,22.9,3,37.2,8.9c10.2,4.2,18.8,8.9,23.1,11.4
		c0.1,0,0.2,0,0.3,0c0.5,0,1-0.1,1.5-0.2c-5.4-26.6-14.1-52.1-25.5-75.9c10.5-5.6,24.1-10.5,38.9-1.2c0.3,0.2,0.6,0.4,0.8,0.5l0,0
		c11.6,7.5,16.9,14,19.9,19.6c1.9,3.6,2.8,6.8,3.7,9.5c-9.2,3.4-39.5,12.6-18.6,42.4c2.2,4.5-8.5,13.5-17.4,15
		c-2.6,0.4-5,0.2-6.9-0.9c-8.6-5-56.8-31.7-75.7-12c-27.8,31.1-8.1,81.2,58.1,79.7c2.9-0.1,5,2.8,3.9,5.6
		c-5.4,13.8-38.9,24.7-48.7,47.6c-5.9,13.7,0,61,49,40.2c2.5-1,6.1-3.4,10-6.3c8.2-5.9,17.8-13.9,20.9-15.7
		c2.7,5.1,14.4,36.7,40.2,11.8c18.6,18.9,34.4,19.9,47.3-4.2c10.9,8.2,30.4,26.8,50.7-16.6
		C-1503.1,1569.6-1513.7,1508.1-1579.7,1490.3z M-2341,1408.8c-5.3,1.9-6.8,5.5-8.7,10.1c-1.2,2.9-2.6,6.2-5.2,9.9
		c-4.2,6.9-20.7,15.3-28.2,11.2c-5.3-2.9-4.8-11.3,1.4-24.5l0.1-0.2l-0.1-0.2c-3.6-10.9-9.4-14.2-11.8-14.2c-0.1,0-0.2,0-0.2,0h-0.4
		l-0.1,0.3c-2.9,10-24.8,21.8-38.5,18.2c-9-2.4-12.1-10.9-8.8-24.8l0.1-0.4l-0.4-0.2c-7.2-2.8-10.7-2.9-12.9-3c-0.4,0-0.8,0-1.2,0
		h-0.4l-0.1,0.4c-1.8,6.4-12.2,10.4-21.3,8.4c-6-1.3-19.2-7.3-15.4-33.2c7.2,8.9,21.6,15.7,34.2,16c8.5,0.2,15.3-2.6,19.7-8.1
		c5.9-8.1,7.2-14.2,4-18.2c-4-4.9-13.9-4.3-16-3.4c-1.5,0.7-1.3,2.6-1.2,4.7c0.1,2.3,0.3,4.9-1.3,6.3c-1.5,1.3-4.3,1.6-8.5,0.8
		c-7.9-1.5-16-11.2-19.2-23.1c-3-11.2-0.9-21.2,5.6-26.7c0.8-0.5,1.6-0.6,2.3-0.4c2.2,0.7,4.1,4.5,6.5,9.3
		c5.2,10.4,13.1,26.1,33.3,27.2c14.5,0.4,25.1-0.4,29.8-13.1c0.6-1.6,2.3-7.7,2.1-14c-0.1-7.7-2.9-13-8-15.1h-0.1
		c-8-0.9-11.3,1.8-12.5,3.5c-1.3,1.8-1.6,4.1-0.7,5.9c1.2,2.7,3.1,11.1,1.2,14.9c-0.5,1-1.2,1.6-2.3,1.8c-3.8,1.3-10.5,1.1-17-3.7
		c-5.2-3.8-13.8-13.5-13-35.4c0.4-13.4,10.2-20.3,16-23.1c7.7-3.8,15-4.2,16.2-3.4c1,0.7,0.8,2.5,0.5,4.9c-0.5,4-1.2,10,3,17
		c6.7,11,22.3,12.2,25.4,12.3c-0.1,0.9-0.4,2.4-0.7,4.2c-2.5,13.1-9.3,47.9,20.6,55.5c4.3,0.9,7.9-0.4,10.9-3.8c5-5.8,6.5-16,5.8-18
		c-0.5-1.4-2.9-1.5-6-1.7c-3.2-0.2-7.1-0.4-8.4-2.3c-2.4-3.8-10.4-27.8,12.1-42.8l0.1-0.1c0.9-1,1.3-2.8,0.9-4.9
		c-0.5-3.1-2.6-7.7-7.2-10.3c-2.3-1.3-4.8,0.3-8.1,2.3c-4.6,2.9-11,7-20.1,4.4l-0.4-0.2c-4.7-2.7-11.8-6.8-12.5-13.4
		c-0.6-5.1,2.7-11.1,9.8-17.8c20.1-18.9,46.2-11.6,52.7-5.6c6.1,5.6,11.9,10.9,7.5,36.2c-0.2,1.2-1.4,2-2.8,2.9
		c-1.7,1.1-3.6,2.4-3.4,4.8c0.2,1.7,1.4,2.9,3.2,4.7c2.7,2.6,6.7,6.6,11,15.2c4.2,8.6,6.8,23,2.4,34.3c-2.6,6.6-7,11.1-13.3,13.5
		l-0.4,0.5c-3.7,3.1-3.1,7.6-2.4,10.1c1,3.6,3.4,7,5.1,7.2h0.1h0.1c6-1.2,12.1,1.5,13.8,6.2C-2320.1,1391.6-2327,1400.6-2341,1408.8
		z M-1550.8,1621.2c-4.7,6-10.7,5.7-13.4,0c-1.6-3.7,1.2-17.8-1.8-19.5c-2.9-1.3-19.1-1.2-18.3,0.9c-0.5,1.6,1,7.6-1.6,21.7
		s-13.9,11.5-18.6,8.6s0.8-35.3,0.1-37.4c-0.7-2-16.3-4.9-18.7-0.2c-1.4,2.6,1.1,7.3,0,15.2c-1.7,11.3-10.1,19.6-15.7,19.3
		c-5.5-0.3-9.9-7.3-8.3-19.1c1.8-16.5,11-28.8,7.6-31.4c-2.4-1-16-6.3-17.3-2.4c-2.9,6.8-7.1,32.2-19.9,41.6c-1.5,1.3-3,2.5-4.5,3.6
		c-40.4,31-55.3,4.6-49.5-5.8c3-5.3,11.5-10,39-33.7c9.2-7.9,15-16.4,18.4-24.3c7.2-16.4,4.6-30.4,2.4-32.5c-0.5-0.5-1.2-1-2-1.5
		c-3.9-2.4-10.2-4-11.8-1.1c-1.8,3.4,7.1,17.3-30.4,14.1c-46.9-13.9-21.2-46.9-7.9-44.5c6.3,1,27.2,17.5,45.3,17.6
		c1.4,0,2.7-0.1,4-0.2c21.9-2.2,34.7-22.3,36.2-24.4c5.8-7.7-1.7-9.3-1.7-17.8s8.5-8.6,30.3-7.9s24.2,7.3,22.4,11.9
		c-1.8,4.6-7.1,5.9-7.7,9.3c-0.7,3.4-0.5,18.9,2.6,20.2c4.3,2.4,22,7.3,34.3,18.2c12.3,10.9,21.5,28.3,22.7,51.9
		C-1533.4,1595.1-1546.1,1615.2-1550.8,1621.2z"/>
</g>
<path d="M-4879.7-2361.6h-385.7c-37.2,0-67.4-30.2-67.4-67.4v-385.7c0-37.2,30.2-67.4,67.4-67.4h385.7c37.2,0,67.4,30.2,67.4,67.4
	v385.7C-4812.3-2391.7-4842.5-2361.6-4879.7-2361.6z"/>
<path d="M-4188.7-2361.6h-385.7c-37.2,0-67.4-30.2-67.4-67.4v-385.7c0-37.2,30.2-67.4,67.4-67.4h385.7c37.2,0,67.4,30.2,67.4,67.4
	v385.7C-4121.3-2391.7-4151.5-2361.6-4188.7-2361.6z"/>
<path d="M-3497.8-2361.6h-385.7c-37.2,0-67.4-30.2-67.4-67.4v-385.7c0-37.2,30.2-67.4,67.4-67.4h385.7c37.2,0,67.4,30.2,67.4,67.4
	v385.7C-3430.4-2391.7-3460.6-2361.6-3497.8-2361.6z"/>
<g>
	<g>
		<path d="M150,2127.4v-405.2c0-81.4,66-147.4,147.4-147.4h405.2c81.4,0,147.4,66,147.4,147.4v405.2c0,81.4-66,147.4-147.4,147.4
			H297.4C216,2274.8,150,2208.8,150,2127.4z"/>
		<path class="st0" d="M191.1,2126.2v-402.9c0-59.3,48.1-107.4,107.4-107.4h402.9c59.3,0,107.4,48.1,107.4,107.4v402.9
			c0,59.3-48.1,107.4-107.4,107.4H298.5C239.2,2233.6,191.1,2185.6,191.1,2126.2z"/>
		<path d="M700.3,2192.5H299.7c-37.2,0-67.4-30.2-67.4-67.4v-400.6c0-37.2,30.2-67.4,67.4-67.4h400.6c37.2,0,67.4,30.2,67.4,67.4
			v400.6C767.7,2162.3,737.5,2192.5,700.3,2192.5z"/>
	</g>
	<text transform="matrix(1 0 0 1 310.824 2046.5833)" class="st0 st2 st3">Ai</text>
</g>
<g>
	<path d="M-4731.6,305v-405.2c0-81.4,66-147.4,147.4-147.4h405.2c81.4,0,147.4,66,147.4,147.4V305c0,81.4-66,147.4-147.4,147.4
		h-405.2C-4665.6,452.4-4731.6,386.4-4731.6,305z"/>
	<path class="st0" d="M-4690.4,303.9V-99c0-59.3,48.1-107.4,107.4-107.4h402.9c59.3,0,107.4,48.1,107.4,107.4v402.9
		c0,59.3-48.1,107.4-107.4,107.4H-4583C-4642.4,411.3-4690.4,363.2-4690.4,303.9z"/>
	<path d="M-4181.3,370.1h-400.6c-37.2,0-67.4-30.2-67.4-67.4V-97.9c0-37.2,30.2-67.4,67.4-67.4h400.6c37.2,0,67.4,30.2,67.4,67.4
		v400.6C-4113.9,340-4144.1,370.1-4181.3,370.1z"/>
</g>
<text transform="matrix(1 0 0 1 -4589.3979 231.2622)" class="st0 st3" style="font-family:'Gotham-Bold';">Ai</text>
<g>
	<g>
		<path d="M1506.5,2168.7v-405.2c0-81.4,66-147.4,147.4-147.4h405.2c81.4,0,147.4,66,147.4,147.4v405.2c0,81.4-66,147.4-147.4,147.4
			h-405.2C1572.5,2316.1,1506.5,2250.1,1506.5,2168.7z"/>
		<path class="st0" d="M1547.6,2167.5v-402.9c0-59.3,48.1-107.4,107.4-107.4h402.9c59.3,0,107.4,48.1,107.4,107.4v402.9
			c0,59.3-48.1,107.4-107.4,107.4H1655C1595.7,2274.9,1547.6,2226.9,1547.6,2167.5z"/>
		<path d="M2056.8,2233.8h-400.6c-37.2,0-67.4-30.2-67.4-67.4v-400.6c0-37.2,30.2-67.4,67.4-67.4h400.6c37.2,0,67.4,30.2,67.4,67.4
			v400.6C2124.2,2203.6,2094,2233.8,2056.8,2233.8z"/>
	</g>
	<text transform="matrix(1 0 0 1 1626.8176 2087.8833)" class="st0 st2 st3">Ps</text>
</g>
<g>
	<g>
		<path d="M2647,2213.1v-405.2c0-81.4,66-147.4,147.4-147.4h405.2c81.4,0,147.4,66,147.4,147.4v405.2c0,81.4-66,147.4-147.4,147.4
			h-405.2C2713,2360.4,2647,2294.4,2647,2213.1z"/>
		<path class="st0" d="M2688.1,2211.9V1809c0-59.3,48.1-107.4,107.4-107.4h402.9c59.3,0,107.4,48.1,107.4,107.4v402.9
			c0,59.3-48.1,107.4-107.4,107.4h-402.9C2736.2,2319.2,2688.1,2271.2,2688.1,2211.9z"/>
		<path d="M3197.3,2278.1h-400.6c-37.2,0-67.4-30.2-67.4-67.4v-400.6c0-37.2,30.2-67.4,67.4-67.4h400.6c37.2,0,67.4,30.2,67.4,67.4
			v400.6C3264.7,2247.9,3234.5,2278.1,3197.3,2278.1z"/>
	</g>
	<text transform="matrix(1 0 0 1 2752.8042 2132.2329)" class="st0 st2 st3">Ae</text>
</g>
<g>
	<g>
		<path d="M150,702.6V297.4C150,216,216,150,297.4,150h405.2C784,150,850,216,850,297.4v405.2C850,784,784,850,702.6,850H297.4
			C216,850,150,784,150,702.6z"/>
		<path class="st0" d="M191.1,701.4V298.5c0-59.3,48.1-107.4,107.4-107.4h402.9c59.3,0,107.4,48.1,107.4,107.4v402.9
			c0,59.3-48.1,107.4-107.4,107.4H298.5C239.2,808.8,191.1,760.8,191.1,701.4z"/>
		<path d="M700.3,767.7H299.7c-37.2,0-67.4-30.2-67.4-67.4V299.7c0-37.2,30.2-67.4,67.4-67.4h400.6c37.2,0,67.4,30.2,67.4,67.4
			v400.6C767.7,737.5,737.5,767.7,700.3,767.7z"/>
	</g>
	<text transform="matrix(1 0 0 1 298.6177 621.7833)" class="st0 st2 st3">Pr</text>
</g>
<text transform="matrix(1 0 0 1 -4587.3833 -688.9678)" class="st0" style="font-family:'Gotham-Bold'; font-size:370px;">Ai</text>
<g>
	<path d="M-4101.1,1909.5l-107.2-61.9v-123.9c0-25.8-13.9-49.8-36.2-62.7l-132.8-76.7c-10.9-6.3-23.4-9.7-36.1-9.7
		c-2.5,0-5.1,0.1-7.6,0.4c-10.4,1.1-20.1,4.2-28.8,9.2l-132.9,76.7c-22.3,12.9-36.2,36.9-36.2,62.7v123.8l-107.2,61.9
		c-22.4,12.9-36.3,36.9-36.3,62.7v153.4c0,25.8,13.9,49.8,36.2,62.7l132.8,76.7c11,6.3,23.5,9.7,36.2,9.7s25.2-3.4,36.2-9.7
		l107.2-61.9l107.3,62c11,6.4,23.5,9.7,36.2,9.7s25.2-3.4,36.2-9.7l117.1-67.6h0.1l15.8-9.2c22.3-12.9,36.1-36.9,36.1-62.6v-153.4
		C-4064.9,1946.4-4078.7,1922.4-4101.1,1909.5z"/>
	<path class="st0" d="M-4121,1944l-127-73.4v-146.9c0-11.6-6.2-22.4-16.3-28.2l-132.8-76.7c-4.9-2.8-10.4-4.3-16.2-4.3
		c-1.2,0-2.3,0.1-3.5,0.2c-4.8,0.5-9.1,1.8-13,4.1l-132.9,76.7c-10.1,5.8-16.3,16.6-16.3,28.2v146.8l-127.1,73.4
		c-10.1,5.8-16.3,16.6-16.3,28.2v153.4c0,11.6,6.3,22.4,16.3,28.2l132.8,76.7c5,2.9,10.6,4.4,16.3,4.4c5.7,0,11.3-1.5,16.3-4.4
		l127-73.3h0.2l127.1,73.4c5,2.9,10.6,4.4,16.3,4.4c5.7,0,11.4-1.5,16.3-4.4l126.3-72.9l0,0l6.6-3.8c10-5.8,16.3-16.6,16.3-28.2
		v-153.4C-4104.7,1960.6-4110.9,1949.8-4121,1944z"/>
	<g id="Page-1">
		<g id="REASON-ICON-NO-BG">
			<g id="Imported-Layers" transform="translate(6.000000, 4.000000)">
				<polyline id="Fill-1" class="st0" points="-4276.1,1891.5 -4276.1,2044.9 -4143.3,2121.6 -4143.3,1968.2 -4276.1,1891.5 				"/>
				<polyline id="Fill-2" class="st0" points="-4552.4,1873.1 -4419.5,1796.4 -4419.5,1643 -4552.4,1719.7 -4552.4,1873.1 				"/>
				<polyline id="Fill-3" class="st0" points="-4430.1,2121.6 -4563,2044.8 -4695.8,2121.5 -4563,2198.3 -4430.1,2121.6 				"/>
				<path id="Fill-4" class="st0" d="M-4340.5,1928.7c4.3,10.3,6.7,21.6,6.7,33.4c0,43.8-32.8,79.8-75.2,85v74.4l132.9-76.7v-153.4
					L-4340.5,1928.7"/>
				<path id="Fill-5" class="st0" d="M-4505.3,1962.1c0-11.9,2.4-23.2,6.8-33.4l-64.4-37.2v153.4l132.8,76.7v-74.5
					C-4472.5,2041.9-4505.3,2005.9-4505.3,1962.1"/>
				<path id="Fill-6" class="st0" d="M-4419.5,1876.3c27.9,0,52.7,13.4,68.3,34.1l64.5-37.2l-132.8-76.7l-132.9,76.7l64.5,37.3
					C-4472.2,1889.7-4447.5,1876.3-4419.5,1876.3"/>
				<path id="Fill-7" class="st4" d="M-4276.1,2202.8c0.8,0,1.5-0.2,2.2-0.6l132.8-76.7l0,0c1.4-0.8,2.2-2.2,2.2-3.8v-153.4
					c0-1.6-0.8-3-2.2-3.8l-132.7-76.6l-0.1-0.1c-1.4-0.8-3-0.8-4.4,0l0,0l0,0l0,0l-64.4,37.2c-1.9,1.1-2.7,3.5-1.9,5.5
					c4.2,10.1,6.3,20.8,6.3,31.7c0,41-30.6,75.6-71.3,80.7c-2.2,0.3-3.9,2.2-3.9,4.4v74.4c0,0.8,0.2,1.6,0.6,2.2
					c0.4,0.7,0.9,1.2,1.6,1.6l132.8,76.7C-4277.6,2202.6-4276.9,2202.8-4276.1,2202.8L-4276.1,2202.8z M-4147.7,2114l-124-71.7
					v-143.2l124,71.6V2114L-4147.7,2114z M-4404.5,2051c43.1-7.2,75.2-44.8,75.2-88.9c0-10.8-1.9-21.4-5.6-31.5l54.4-31.4v143.2
					l-124,71.6V2051L-4404.5,2051z"/>
				<path id="Fill-9" class="st4" d="M-4698.1,2125.4l132.9,76.7c0.7,0.4,1.4,0.6,2.2,0.6c0.8,0,1.5-0.2,2.2-0.6l132.8-76.6h0.1
					c1.4-0.8,2.2-2.2,2.2-3.8v-74.5c0-2.2-1.7-4.1-3.9-4.4c-40.6-5-71.3-39.7-71.3-80.7c0-11.1,2.2-21.8,6.4-31.7
					c0.9-2.1,0.1-4.4-1.9-5.6l-64.4-37.2l0,0l0,0c-1.4-0.8-3-0.8-4.4,0l-132.9,76.7c-1.4,0.8-2.2,2.2-2.2,3.8v153.4
					C-4700.3,2123.1-4699.4,2124.6-4698.1,2125.4L-4698.1,2125.4z M-4563,2193.2l-124-71.6l124-71.6l124,71.6L-4563,2193.2
					L-4563,2193.2z M-4504,1930.6c-3.8,10-5.7,20.6-5.7,31.5c0,44.1,32,81.6,75.2,88.9v63l-124-71.6v-143.2L-4504,1930.6
					L-4504,1930.6z"/>
				<path id="Fill-10" class="st4" d="M-4554.6,1876.9l64.5,37.3c1.9,1.1,4.4,0.6,5.7-1.2c15.6-20.6,39.2-32.4,64.8-32.4
					c25.7,0,49.3,11.8,64.8,32.4c0.9,1.1,2.2,1.8,3.5,1.8c0.8,0,1.5-0.2,2.2-0.6l64.5-37.2l0,0l0,0c1.4-0.8,2.2-2.2,2.2-3.8v-153.4
					c0-1.6-0.8-3-2.2-3.8l-132.8-76.7c-0.8-0.5-1.7-0.6-2.6-0.5c-0.6,0.1-1.2,0.2-1.8,0.5l-132.9,76.7c-1.4,0.8-2.2,2.2-2.2,3.8
					V1873v0.1C-4556.8,1874.7-4556,1876.2-4554.6,1876.9L-4554.6,1876.9z M-4350.1,1904.7c-17.2-20.9-42.3-32.8-69.4-32.8
					s-52.2,11.9-69.5,32.8l-54.6-31.5l124.1-71.6l0.5,0.3l123.5,71.4L-4350.1,1904.7L-4350.1,1904.7z M-4423.9,1650.7v143.2
					l-124.1,71.6v-143.2L-4423.9,1650.7L-4423.9,1650.7z"/>
				<path id="Fill-8" class="st4" d="M-4419.5,1891.5c-38.9,0-70.6,31.7-70.6,70.6s31.7,70.6,70.6,70.6s70.5-31.7,70.5-70.6
					S-4380.6,1891.5-4419.5,1891.5"/>
			</g>
		</g>
	</g>
</g>
<g id="t3IRHu_1_">
	
		<image style="overflow:visible;enable-background:new    ;" width="225" height="225" id="t3IRHu" xlink:href="4C660392B55963E8.jpeg"  transform="matrix(5.1422 0 0 5.1422 -4587.3833 -2296.2886)">
	</image>
</g>
<g>
	<g>
		<path d="M-3489.5,1614.7c41.7,0,82.2,8.2,120.2,24.3c36.8,15.6,69.9,37.9,98.3,66.3c28.5,28.5,50.8,61.6,66.5,98.6
			c16.2,38.3,24.4,78.9,24.4,120.9s-8.2,82.6-24.4,120.9c-15.6,36.9-38,70.1-66.5,98.6c-28.4,28.4-61.5,50.7-98.3,66.3
			c-38.1,16.1-78.5,24.3-120.2,24.3s-82.2-8.2-120.2-24.3c-36.8-15.6-69.9-37.9-98.3-66.3c-28.5-28.5-50.8-61.6-66.5-98.6
			c-16.2-38.3-24.4-78.9-24.4-120.9s8.2-82.6,24.4-120.9c15.6-36.9,38-70.1,66.5-98.6c28.4-28.4,61.5-50.7,98.3-66.3
			C-3571.6,1622.9-3531.2,1614.7-3489.5,1614.7 M-3489.5,1574.7c-193.3,0-350,156.7-350,350s156.7,350,350,350s350-156.7,350-350
			S-3296.2,1574.7-3489.5,1574.7L-3489.5,1574.7z"/>
	</g>
	<path class="st0" d="M-3180.1,1924.7c0-41.9-8.2-82.6-24.4-120.9c-15.6-36.9-38-70.1-66.5-98.6c-28.4-28.4-61.5-50.7-98.3-66.3
		c-38.1-16.1-78.5-24.3-120.2-24.3s-82.2,8.2-120.2,24.3c-36.8,15.6-69.9,37.9-98.3,66.3c-28.5,28.5-50.8,61.6-66.5,98.6
		c-16.2,38.2-24.4,78.9-24.4,120.9s8.2,82.6,24.4,120.9c15.6,36.9,38,70.1,66.5,98.6c28.4,28.4,61.5,50.7,98.3,66.3
		c38.1,16.1,78.5,24.3,120.2,24.3s82.2-8.2,120.2-24.3c36.8-15.6,69.9-37.9,98.3-66.3c28.5-28.5,50.8-61.6,66.5-98.6
		C-3188.3,2007.3-3180.1,1966.7-3180.1,1924.7z"/>
	<path d="M-3165.1,1937.6h-73.9c-2.9,0-5.3-2.4-5.3-5.3v-58.4c0-10.6-8.6-19.3-19.3-19.3h-89.2c-10.6,0-19.3,8.6-19.3,19.3v140.6
		c0,2.9-2.4,5.3-5.3,5.3h-30c-2.9,0-5.3-2.4-5.3-5.3v-227.8c0-10.6-8.6-19.3-19.3-19.3h-113.7c-10.6,0-19.3,8.6-19.3,19.3v249.6
		c0,2.9-2.4,5.3-5.3,5.3h-36.6c-2.9,0-5.3-2.4-5.3-5.3v-165.5c0-10.6-8.6-19.3-19.3-19.3h-86c-10.6,0-19.3,8.6-19.3,19.3v61.5
		c0,2.9-2.4,5.3-5.3,5.3h-72.3c-10.6,0-19.3,8.6-19.3,19.3v2c0,10.6,8.6,19.3,19.3,19.3h98.7c10.6,0,19.3-8.6,19.3-19.3v-61.5
		c0-2.9,2.4-5.3,5.3-5.3h33.1c2.9,0,5.3,2.4,5.3,5.3v165.5c0,10.6,8.6,19.3,19.3,19.3h89.5c10.6,0,19.3-8.6,19.3-19.3v-249.6
		c0-2.9,2.4-5.3,5.3-5.3h60.8c2.9,0,5.3,2.4,5.3,5.3v227.8c0,10.6,8.6,19.3,19.3,19.3h82.9c10.6,0,19.3-8.6,19.3-19.3v-140.6
		c0-2.9,2.4-5.3,5.3-5.3h36.2c2.9,0,5.3,2.4,5.3,5.3v58.4c0,10.6,8.6,19.3,19.3,19.3h100.4c10.6,0,19.3-8.6,19.3-19.3v-2
		C-3145.8,1946.2-3154.5,1937.6-3165.1,1937.6z"/>
</g>
<g>
	<path class="st0" d="M-2017.1,888.6c-86.7,0-168.2-34.3-229.5-96.5c-61.4-62.3-95.2-145.2-95.2-233.5s33.8-171.1,95.2-233.5
		c61.3-62.3,142.8-96.5,229.5-96.5s168.2,34.3,229.5,96.5c61.4,62.3,95.2,145.2,95.2,233.5s-33.8,171.1-95.2,233.5
		C-1848.9,854.4-1930.4,888.6-2017.1,888.6z"/>
	<path d="M-2017.1,248.6c41.1,0,80.9,8.2,118.4,24.3c36.3,15.6,68.9,37.9,96.9,66.3c28,28.5,50.1,61.6,65.5,98.6
		c15.9,38.2,24,78.9,24,120.9s-8.1,82.6-24,120.9c-15.4,36.9-37.4,70.1-65.5,98.6c-28,28.4-60.6,50.7-96.9,66.3
		c-37.5,16.1-77.3,24.3-118.4,24.3s-80.9-8.2-118.4-24.3c-36.3-15.6-68.9-37.9-96.9-66.3c-28-28.5-50.1-61.6-65.5-98.6
		c-15.9-38.2-24-78.9-24-120.9s8.1-82.6,24-120.9c15.4-36.9,37.4-70.1,65.5-98.6c28-28.4,60.6-50.7,96.9-66.3
		C-2098.1,256.8-2058.2,248.6-2017.1,248.6 M-2017.1,208.6c-190.4,0-344.8,156.7-344.8,350s154.4,350,344.8,350
		s344.8-156.7,344.8-350S-1826.7,208.6-2017.1,208.6L-2017.1,208.6z"/>
</g>
<path d="M-1695.8,571.5h-72.8c-2.9,0-5.2-2.4-5.2-5.3v-58.4c0-10.6-8.5-19.3-19-19.3h-87.8c-10.5,0-19,8.6-19,19.3v140.6
	c0,2.9-2.3,5.3-5.2,5.3h-29.5c-2.9,0-5.2-2.4-5.2-5.3V420.6c0-10.6-8.5-19.3-19-19.3h-112c-10.5,0-19,8.6-19,19.3v249.6
	c0,2.9-2.3,5.3-5.2,5.3h-36c-2.9,0-5.2-2.4-5.2-5.3V504.7c0-10.6-8.5-19.3-19-19.3h-84.8c-10.5,0-19,8.6-19,19.3v61.5
	c0,2.9-2.3,5.3-5.2,5.3h-71.2c-10.5,0-19,8.6-19,19.3v2c0,10.6,8.5,19.3,19,19.3h97.3c10.5,0,19-8.6,19-19.3v-61.5
	c0-2.9,2.3-5.3,5.2-5.3h32.6c2.9,0,5.2,2.4,5.2,5.3v165.5c0,10.6,8.5,19.3,19,19.3h88.2c10.5,0,19-8.6,19-19.3V447.1
	c0-2.9,2.3-5.3,5.2-5.3h59.8c2.9,0,5.2,2.4,5.2,5.3v227.8c0,10.6,8.5,19.3,19,19.3h81.7c10.5,0,19-8.6,19-19.3V534.3
	c0-2.9,2.3-5.3,5.2-5.3h35.7c2.9,0,5.2,2.4,5.2,5.3v58.4c0,10.6,8.5,19.3,19,19.3h98.9c10.5,0,19-8.6,19-19.3v-2
	C-1676.8,580.1-1685.3,571.5-1695.8,571.5z"/>
<polyline class="st5" points="-3413,1011.9 -3254.4,1011.9 -3254.4,901.4 -3146.4,901.4 -3146.4,1145.4 -3033.9,1145.4 
	-3033.9,793.4 -2890.4,793.4 -2890.4,1117.4 -2786.4,1117.4 -2786.4,905.4 -2674.4,905.4 -2674.4,1011.9 -2518.4,1011.9 "/>
<path class="st0" d="M-1787.8-883.5c12.3,41.6,9.9,97.6-5.7,149.3c-0.9,3-3.6,5-6.7,4.9c-75.7-0.7-126.3,50.6-181.5,90.5
	c-69.4,50.1-144,84.5-230,90c-163.7,10.5-255.5-96.5-274.9-226.4c-19.7-131.9,76.8-262.7,203.3-282.6
	c101.2-16,192.3,15.6,277.4,67.8c40.1,24.7,78.5,52.5,119,76.2c30.4,17.8,56.3,24.4,92.6,25.4
	C-1791.3-888.4-1788.7-886.4-1787.8-883.5z"/>
<path class="st0" d="M-1655.3-1433.4c-144.1-7.9-274.1-85.5-344.1-244.4c-70.4-159.9-44.9-312.3,73-441.1
	c115.4-126,261.2-160.1,425.6-113.8c19.5,5.5,39.7,12.1,40.4,36.5c0.9,31.4-10.9,48.2-35.4,55.7c-47.7,14.7-96.4,26.9-145.3,37.2
	c-81.1,17.1-156.4,46.4-220.6,99.8c-91.8,76.3-129.1,174.8-98.6,289.7c30.5,114.7,110.1,188.8,227,211.4
	c117.6,22.8,215.1-18.3,285.8-116.4c51.8-72,75.7-154.5,87.5-241.4c4.6-34,11.5-67.8,19.3-101.2c3-13,8-27.1,15.8-37.2
	c11.4-14.7,27.3-25,47.6-24.6c16.4,0.3,27.4,20.2,33.1,34.6C-1139.2-1723.6-1340.5-1432.5-1655.3-1433.4z"/>
<circle class="st0" cx="-2636.6" cy="-1826.5" r="423"/>
<circle class="st6" cx="-3493.7" cy="-535.5" r="124.7"/>
<rect x="-3451.9" y="-583.5" class="st6" width="198.3" height="96"/>
<path class="st0" d="M-3066.6,240.2c5.4,2.1,10.4,5.4,14.9,10.1c-26.3,76.3-98.8,131.2-184.1,131.2c-107.5,0-194.7-87.2-194.7-194.7
	s87.2-194.7,194.7-194.7c85.8,0,158.7,55.5,184.6,132.6c-4.5,4.8-9.5,8.2-14.9,10.4c5,16.3,7.6,33.7,7.6,51.6
	C-3058.4,205.4-3061.3,223.3-3066.6,240.2z"/>
<path class="st0" d="M-3058.4,186.7c0,18.6-2.9,36.6-8.2,53.4c-22.7,71.8-89.8,123.9-169.1,123.9c-97.9,0-177.3-79.4-177.3-177.3
	s79.4-177.3,177.3-177.3c80,0,147.6,52.9,169.7,125.7C-3061.1,151.4-3058.4,168.8-3058.4,186.7z"/>
<path class="st7" d="M-3046.4,122.2c-0.4,0.4-0.7,0.8-1.1,1.2c-4.6,4.9-9.7,8.4-15.2,10.6c-12.8,5.1-28,3.1-44.4-6
	c-10.5-5.8-60-52-122.9-66.8c-80.8-19.1-177.5,21.4-177.5,126.5s96.7,145.6,177.5,126.5c62.8-14.9,112.4-61,122.9-66.8
	c16.1-8.9,31.1-11,43.8-6.2c5.5,2.1,10.6,5.5,15.2,10.3c0.6,0.6,1.1,1.2,1.6,1.8"/>
<g>
	<g>
		<g>
			<path d="M5523.6,573.7V168.5c0-81.4,66-147.4,147.4-147.4h405.2c81.4,0,147.4,66,147.4,147.4v405.2c0,81.4-66,147.4-147.4,147.4
				H5671C5589.5,721.1,5523.6,655.1,5523.6,573.7z"/>
		</g>
		<g>
			<path class="st0" d="M5564.7,572.5V169.6c0-59.3,48.1-107.4,107.4-107.4H6075c59.3,0,107.4,48.1,107.4,107.4v402.9
				c0,59.3-48.1,107.4-107.4,107.4h-402.9C5612.8,679.9,5564.7,631.9,5564.7,572.5z"/>
		</g>
		<g>
			<path d="M6073.9,638.8h-400.6c-37.2,0-67.4-30.2-67.4-67.4V170.8c0-37.2,30.2-67.4,67.4-67.4h400.6c37.2,0,67.4,30.2,67.4,67.4
				v400.6C6141.3,608.6,6111.1,638.8,6073.9,638.8z"/>
		</g>
	</g>
	<g>
		<g>
			<path class="st0" d="M6091,276.1c30.3,81.6,12.6,177.4-53.1,243.8c-65.4,66.1-159.7,85.1-241,56.6
				c-60.4-21.1-107.6-68.3-128.7-128.7c-28.5-81.4-9.5-175.6,56.6-241c66.4-65.7,162.1-83.4,243.8-53.1c8.9,3.3,13.4,13.3,9.5,22
				c0,0.1-0.1,0.1-0.1,0.2c-0.5,1.2-1.1,2.3-1.8,3.4c-6.2,10.7-17.8,18.5-34.7,23.4c-2.2,0.6-8,1.5-14.8,2.4
				c-30.2,4.2-93.1,13.1-146.7,46.3c-14,8.7-26.8,18.9-38.3,30.4c-30.5,30.5-50.8,69.3-55.6,108.4c-2.5,20.8-0.8,41,5.1,60.4
				c3.1,10.4,7.5,20.5,13,30.3c14,25,34.7,45.6,59.6,59.6c9.8,5.5,19.9,9.8,30.3,13c19.3,5.8,39.6,7.6,60.4,5.1
				c39.1-4.7,77.9-25.1,108.4-55.6c11.4-11.4,21.7-24.3,30.4-38.3c33.2-53.6,42-116.5,46.3-146.7c1-6.8,1.8-12.6,2.4-14.8
				c4.9-16.8,12.8-28.5,23.4-34.7c1.1-0.6,2.2-1.2,3.4-1.8c0.1,0,0.1-0.1,0.2-0.1C6077.7,262.7,6087.7,267.2,6091,276.1z"/>
		</g>
		<g>
			<path class="st0" d="M6055.4,249.3c0.3,0.5,0.7,1.1,1,1.7c0.5,0.9,0.2,2.1-0.7,2.7c-14.1,8.6-24.7,23.9-30.7,44.6
				c-1,3.4-1.8,8.9-2.9,17.3c-4.1,29-12.5,89.4-43.8,139.7c-29.1,46.8-77.2,79.6-125.6,85.4c-27.8,3.4-54.6-2-79.3-15.6
				c-22.6-12.5-41.3-31.2-53.8-53.8c-13.6-24.6-19-51.5-15.6-79.3c5.9-48.4,38.6-96.6,85.4-125.6c50.4-31.2,110.7-39.7,139.7-43.8
				c8.4-1.2,13.9-1.9,17.3-2.9c20.7-6,35.9-16.6,44.6-30.7c0.6-0.9,1.7-1.2,2.7-0.7c0.6,0.3,1.1,0.6,1.6,1
				C6020,204,6040.7,224.7,6055.4,249.3z"/>
			<path d="M5836.4,551.7c-23.7,0-46.4-6-67.9-17.8c-24.3-13.4-44.3-33.4-57.8-57.8c-14.7-26.7-20.4-55.4-16.8-85.3
				c6.2-51.4,40.8-102.3,90.1-132.9c52.1-32.3,113.9-41,143.6-45.2l0.4-0.1c7.4-1,12.8-1.8,15.5-2.6c18.1-5.3,31.5-14.4,38.8-26.3
				c3.4-5.5,10.7-7.4,16.2-4.1c0.6,0.3,1.2,0.7,1.7,1c26,15.6,48,37.5,63.6,63.6l0,0c0.3,0.6,0.7,1.2,1,1.7
				c3.3,5.6,1.4,12.8-4.1,16.2c-11.9,7.3-21,20.7-26.3,38.9c-0.8,2.7-1.5,8.1-2.6,15.5l-0.1,0.4c-4.2,29.7-12.8,91.5-45.2,143.6
				c-30.6,49.3-81.5,83.9-132.9,90.1C5848,551.3,5842.2,551.7,5836.4,551.7z M5994.9,200.7c-10.3,13-25.9,22.7-45.7,28.5
				c-4.1,1.2-9.7,2-18.3,3.2l-0.4,0.1c-28.4,4-87.3,12.3-135.9,42.4c-44.3,27.5-75.3,72.8-80.8,118.3c-3.1,25.7,1.7,50.3,14.4,73.2
				c11.6,21,28.9,38.3,49.9,49.9c22.9,12.7,47.6,17.5,73.2,14.4c45.5-5.5,90.8-36.5,118.3-80.8c30.1-48.5,38.4-107.5,42.4-135.8
				l0.1-0.4c1.2-8.6,2-14.3,3.2-18.3c5.8-19.8,15.6-35.4,28.5-45.7C6031.3,230.2,6014.5,213.4,5994.9,200.7z"/>
		</g>
	</g>
</g>
<g>
	<g>
		<path d="M7388.3,573.7V168.5c0-81.4,66-147.4,147.4-147.4h405.2c81.4,0,147.4,66,147.4,147.4v405.2c0,81.4-66,147.4-147.4,147.4
			h-405.2C7454.3,721.1,7388.3,655.1,7388.3,573.7z"/>
		<path class="st0" d="M7429.5,572.5V169.6c0-59.3,48.1-107.4,107.4-107.4h402.9c59.3,0,107.4,48.1,107.4,107.4v402.9
			c0,59.3-48.1,107.4-107.4,107.4h-402.9C7477.6,679.9,7429.5,631.9,7429.5,572.5z"/>
		<path d="M7938.6,638.8H7538c-37.2,0-67.4-30.2-67.4-67.4V170.8c0-37.2,30.2-67.4,67.4-67.4h400.6c37.2,0,67.4,30.2,67.4,67.4
			v400.6C8006,608.6,7975.9,638.8,7938.6,638.8z"/>
	</g>
	<path class="st0" d="M8006,383.9h-17.2c-2.9,0-5.3-2.4-5.3-5.3v-58.4c0-10.6-8.6-19.3-19.3-19.3H7875c-10.6,0-19.3,8.6-19.3,19.3
		v140.6c0,2.9-2.4,5.3-5.3,5.3h-30c-2.9,0-5.3-2.4-5.3-5.3V233.1c0-10.6-8.6-19.3-19.3-19.3h-113.7c-10.6,0-19.3,8.6-19.3,19.3
		v249.6c0,2.9-2.4,5.3-5.3,5.3h-36.6c-2.9,0-5.3-2.4-5.3-5.3V317.2c0-10.6-8.6-19.3-19.3-19.3h-86c-10.6,0-19.3,8.6-19.3,19.3v61.5
		c0,2.9-2.4,5.3-5.3,5.3h-15.6c-10.6,0-19.3,8.6-19.3,19.3v2c0,10.6,8.6,19.3,19.3,19.3h42.1c10.6,0,19.3-8.6,19.3-19.3v-61.5
		c0-2.9,2.4-5.3,5.3-5.3h33.1c2.9,0,5.3,2.4,5.3,5.3v165.5c0,10.6,8.6,19.3,19.3,19.3h89.5c10.6,0,19.3-8.6,19.3-19.3V259.5
		c0-2.9,2.4-5.3,5.3-5.3h60.8c2.9,0,5.3,2.4,5.3,5.3v227.8c0,10.6,8.6,19.3,19.3,19.3h82.9c10.6,0,19.3-8.6,19.3-19.3V346.8
		c0-2.9,2.4-5.3,5.3-5.3h36.2c2.9,0,5.3,2.4,5.3,5.3v58.4c0,10.6,8.6,19.3,19.3,19.3h43.7c10.6,0,19.3-8.6,19.3-19.3v-2
		C8025.3,392.6,8016.7,383.9,8006,383.9z"/>
</g>
<g>
	<path d="M6455.9,573.7V168.5c0-81.4,66-147.4,147.4-147.4h405.2c81.4,0,147.4,66,147.4,147.4v405.2c0,81.4-66,147.4-147.4,147.4
		h-405.2C6521.9,721.1,6455.9,655.1,6455.9,573.7z"/>
	<path class="st0" d="M6497.1,572.5V169.6c0-59.3,48.1-107.4,107.4-107.4h402.9c59.3,0,107.4,48.1,107.4,107.4v402.9
		c0,59.3-48.1,107.4-107.4,107.4h-402.9C6545.2,679.9,6497.1,631.9,6497.1,572.5z"/>
	<path d="M7006.3,638.8h-400.6c-37.2,0-67.4-30.2-67.4-67.4V170.8c0-37.2,30.2-67.4,67.4-67.4h400.6c37.2,0,67.4,30.2,67.4,67.4
		v400.6C7073.6,608.6,7043.5,638.8,7006.3,638.8z"/>
	<g id="REASON-ICON-NO-BG_1_">
		<g id="Imported-Layers_1_" transform="translate(6.000000, 4.000000)">
			<polyline id="Fill-1_1_" points="6914.9,343.7 6914.9,466.6 7021.4,528.1 7021.4,405.1 6914.9,343.7 			"/>
			<polyline id="Fill-2_1_" points="6693.5,328.9 6800,267.5 6800,144.5 6693.5,206 6693.5,328.9 			"/>
			<polyline id="Fill-3_1_" points="6791.5,528.1 6685,466.6 6578.5,528 6685,589.5 6791.5,528.1 			"/>
			<path id="Fill-4_1_" d="M6863.3,373.5c3.4,8.2,5.4,17.3,5.4,26.8c0,35.1-26.3,64-60.3,68.2v59.7l106.5-61.5v-123L6863.3,373.5"/>
			<path id="Fill-5_1_" d="M6731.2,400.2c0-9.5,1.9-18.6,5.4-26.8l-51.7-29.8v123l106.5,61.5v-59.7
				C6757.5,464.2,6731.2,435.3,6731.2,400.2"/>
			<path id="Fill-6_1_" d="M6800,331.5c22.4,0,42.2,10.7,54.7,27.3l51.7-29.8L6800,267.5L6693.5,329l51.7,29.9
				C6757.8,342.2,6777.5,331.5,6800,331.5"/>
			<path id="Fill-7_1_" class="st8" d="M6914.9,593.1c0.6,0,1.2-0.2,1.8-0.5l106.5-61.5l0,0c1.1-0.6,1.8-1.8,1.8-3.1V405
				c0-1.3-0.7-2.4-1.8-3.1l-106.4-61.4l-0.1-0.1c-1.1-0.6-2.4-0.6-3.5,0l0,0l0,0l0,0l-51.6,29.8c-1.5,0.9-2.2,2.8-1.5,4.4
				c3.4,8.1,5.1,16.7,5.1,25.4c0,32.8-24.6,60.6-57.2,64.6c-1.8,0.2-3.1,1.7-3.1,3.5v59.7c0,0.6,0.2,1.3,0.5,1.8s0.7,1,1.3,1.3
				l106.5,61.5C6913.7,593,6914.3,593.1,6914.9,593.1L6914.9,593.1z M7017.9,522l-99.4-57.4V349.8l99.4,57.4V522L7017.9,522z
				 M6812,471.5c34.6-5.8,60.3-35.9,60.3-71.2c0-8.7-1.5-17.2-4.5-25.2l43.6-25.2v114.8l-99.4,57.4V471.5L6812,471.5z"/>
			<path id="Fill-9_1_" class="st8" d="M6576.7,531.1l106.5,61.5c0.5,0.3,1.2,0.5,1.8,0.5c0.6,0,1.2-0.2,1.8-0.5l106.4-61.4
				c0,0,0,0,0.1,0c1.1-0.6,1.8-1.8,1.8-3.1v-59.7c0-1.8-1.3-3.3-3.1-3.5c-32.6-4-57.1-31.8-57.1-64.6c0-8.9,1.7-17.5,5.1-25.4
				c0.7-1.6,0.1-3.6-1.5-4.5l-51.7-29.8l0,0l0,0c-1.1-0.6-2.4-0.6-3.5,0L6576.7,402c-1.1,0.6-1.8,1.8-1.8,3.1V528
				C6574.9,529.3,6575.6,530.5,6576.7,531.1L6576.7,531.1z M6685,585.5l-99.4-57.4l99.4-57.4l99.4,57.4L6685,585.5L6685,585.5z
				 M6732.2,375c-3,8-4.5,16.5-4.5,25.3c0,35.3,25.7,65.4,60.2,71.2V522l-99.4-57.4V349.8L6732.2,375L6732.2,375z"/>
			<path id="Fill-10_1_" class="st8" d="M6691.7,332l51.7,29.9c1.5,0.9,3.5,0.5,4.6-0.9c12.5-16.5,31.4-25.9,52-25.9
				s39.5,9.5,51.9,25.9c0.7,0.9,1.7,1.4,2.8,1.4c0.6,0,1.2-0.2,1.8-0.5l51.7-29.8l0,0l0,0c1.1-0.6,1.8-1.8,1.8-3.1V206
				c0-1.3-0.7-2.4-1.8-3.1l-106.5-61.5c-0.7-0.4-1.4-0.5-2.1-0.4c-0.5,0-1,0.1-1.4,0.4l-106.5,61.5c-1.1,0.6-1.8,1.8-1.8,3.1v122.9
				c0,0,0,0,0,0.1C6689.9,330.2,6690.6,331.4,6691.7,332L6691.7,332z M6855.6,354.2c-13.8-16.7-33.9-26.3-55.6-26.3
				s-41.9,9.5-55.7,26.3l-43.8-25.3l99.5-57.4l0.4,0.2l99,57.2L6855.6,354.2L6855.6,354.2z M6796.5,150.6v114.8l-99.4,57.4V208
				L6796.5,150.6L6796.5,150.6z"/>
			<path id="Fill-8_1_" class="st8" d="M6800,343.7c-31.2,0-56.6,25.4-56.6,56.6s25.4,56.6,56.6,56.6s56.5-25.4,56.5-56.6
				S6831.1,343.7,6800,343.7"/>
		</g>
	</g>
</g>
</svg>
